<?xml version="1.0" encoding="utf-8"?>
<!-- Generator: Adobe Illustrator 19.0.1, SVG Export Plug-In . SVG Version: 6.00 Build 0)  -->
<!DOCTYPE svg PUBLIC "-//W3C//DTD SVG 1.1//EN" "http://www.w3.org/Graphics/SVG/1.1/DTD/svg11.dtd">
<svg version="1.1" id="Layer_1" xmlns="http://www.w3.org/2000/svg" xmlns:xlink="http://www.w3.org/1999/xlink" x="0px" y="0px"
	 width="250px" height="250px" viewBox="0 0 250 250" style="enable-background:new 0 0 250 250;" xml:space="preserve">
<style type="text/css">
	.st0{fill:#FAA63F;}
	.st1{fill:#E85D24;}
</style>
<g>
	<rect x="138" y="123.2" class="st0" width="12.1" height="6.5"/>
	<path class="st0" d="M13.4,235.1h222.4v-221H13.4V235.1z M203.8,28.5h17.7v17.7h-17.7V28.5z M203.8,206.1h17.7v17.7h-17.7V206.1z
		 M62.9,64.8h10.9V47.7H138h23.6v17.1h14.7v17.1h12.1v43.6h-14.7v14.8h-23.6v18.6H138v16.8h12.1v29.2h-37.8v-17.1h-12.1v-29.2h12.1
		v-16.8h-12.1v-29.2H138V81.9h-25.2v29.2H75V94H62.9V64.8z M26.9,28.5h17.7v17.7H26.9V28.5z M26.9,206.1h17.7v17.7H26.9V206.1z"/>
	<rect x="100.7" y="64.8" class="st0" width="37.4" height="0"/>
	<polygon points="112.3,187.8 112.3,204.9 150.2,204.9 150.2,175.7 138,175.7 138,187.8 	"/>
	<polygon points="100.7,64.8 100.7,94 75,94 75,111.1 112.8,111.1 112.8,81.9 138,81.9 138,64.8 	"/>
	<polygon points="161.6,108.4 161.6,123.2 150.2,123.2 150.2,129.7 138,129.7 138,141.8 112.3,141.8 112.3,158.6 138,158.6 
		138,158.9 150.2,158.9 150.2,140.3 173.7,140.3 173.7,125.5 188.4,125.5 188.4,81.9 176.3,81.9 176.3,108.4 	"/>
	<polygon class="st1" points="112.3,158.6 100.2,158.6 100.2,187.8 112.3,187.8 138,187.8 138,175.7 138,158.9 138,158.6 	"/>
	<polygon class="st1" points="100.7,94 100.7,64.8 100.7,64.8 138,64.8 138,64.8 138,81.9 138,112.6 100.2,112.6 100.2,141.8 
		112.3,141.8 138,141.8 138,129.7 138,123.2 150.2,123.2 161.6,123.2 161.6,108.4 176.3,108.4 176.3,81.9 176.3,64.8 161.6,64.8 
		161.6,47.7 138,47.7 73.8,47.7 73.8,64.8 62.9,64.8 62.9,94 75,94 	"/>
	<polygon class="st1" points="13.4,14.1 235.8,14.1 235.8,0.7 13.4,0.7 0,0.7 0,235.1 13.4,235.1 	"/>
	<polygon points="235.8,0.7 235.8,14.1 235.8,235.1 13.4,235.1 0,235.1 0,249.3 235.8,249.3 250,249.3 250,0.7 	"/>
	<rect x="26.9" y="28.5" width="17.7" height="17.7"/>
	<rect x="26.9" y="206.1" width="17.7" height="17.7"/>
	<rect x="203.8" y="28.5" width="17.7" height="17.7"/>
	<rect x="203.8" y="206.1" width="17.7" height="17.7"/>
</g>
</svg>
