<?xml version="1.0" encoding="utf-8"?>
<!-- Generator: Adobe Illustrator 20.1.0, SVG Export Plug-In . SVG Version: 6.00 Build 0)  -->
<svg version="1.1" id="Capa_1" xmlns="http://www.w3.org/2000/svg" xmlns:xlink="http://www.w3.org/1999/xlink" x="0px" y="0px"
	 width="56.8px" height="28px" viewBox="0 0 56.8 28" enable-background="new 0 0 56.8 28" xml:space="preserve">
<g>
	<path fill="#F29C1F" d="M56.5,12.8L56.5,12.8c-1.1-3-4.5-4.4-7.3-2.9l-18.9,9.7c-1,0.5-1.5,1.7-1.1,2.8l0,0
		c0.4,1.1,1.5,1.7,2.6,1.5l20.8-4.3C55.7,19.1,57.5,15.8,56.5,12.8z"/>
	<path fill="#F29C1F" d="M1.5,6.8L1.5,6.8c2.2-2.2,5.9-2,7.9,0.5l12.8,17c0.7,0.9,0.6,2.2-0.2,3l0,0c-0.8,0.8-2.1,0.9-3,0.2
		l-17-12.8C-0.5,12.8-0.7,9.1,1.5,6.8z"/>
	<circle fill="#D1D4D1" cx="32.5" cy="6.5" r="6.5"/>
	<circle fill="#FFFFFF" cx="5.5" cy="10.5" r="2.5"/>
	<circle fill="#FFFFFF" cx="51.6" cy="14.6" r="2.5"/>
	<path fill="#FFFFFF" d="M30,8c-0.6,0-1-0.4-1-1c0-2.2,1.8-4,4-4c0.6,0,1,0.4,1,1s-0.4,1-1,1c-1.1,0-2,0.9-2,2C31,7.6,30.6,8,30,8z"
		/>
</g>
</svg>
